<?xml version="1.0" encoding="utf-8"?>
<svg version="1.1" id="layer_1" xmlns="http://www.w3.org/2000/svg" xmlns:xlink="http://www.w3.org/1999/xlink" x="0px" y="0px"
	 viewBox="0 0 511 511" style="enable-background:new 0 0 511 511;" xml:space="preserve">
<style type="text/css">
	.st0{fill:#F2C529;}
	.st1{fill:#AA741A;}
	.st2{fill:#784B15;}
	.st3{fill:#AA741A;stroke:#F2C529;stroke-miterlimit:10;}
	.st4{fill-rule:evenodd;clip-rule:evenodd;fill:#F2C529;}
</style>
<g>
	<path class="st0" d="M110.7,197.5c-1.8-4.2-3.2-8.5-4.2-12.9c-0.9-4.1-1.4-8.3-1.4-12.5c0-0.2-1.8-0.7-1.8-0.7
		c-7.2-0.6-16.1-1.5-20.9-1.5c-18.8,0-65.9,0-65.9,0c-8,0-14.6,6.5-14.6,14.6v1.9c0,8,6.5,14.6,14.6,14.6H64
		c11.9,0,47.3,8.6,74.8,31.4c1.4,1.2,2.7,2.1,3.9,2.9C127.9,224.4,116.8,211.6,110.7,197.5z"/>
	<path class="st1" d="M110.7,197.5c-0.1-0.2-0.1-0.3-0.2-0.5c-19-4.5-36.3-5.8-42.4-5.8H20.5c-8,0-14.6-5.6-14.6-13.6v-2.9
		c0-0.2,0-0.3,0-0.5c-2.6,2.6-4.1,6.2-4.1,10.1v1.9c0,8,6.5,14.6,14.6,14.6H64c11.9,0,47.3,8.6,74.8,31.4c1.4,1.2,2.7,2.1,3.9,2.9
		C127.9,224.4,116.8,211.6,110.7,197.5z"/>
	<g>
		<path class="st0" d="M408.4,162.2c-21.1,8.6-46.3,9.6-61,9.6c-0.4,0-0.8,0.1-1.2,0.2h-76.6h-28.4h-79.8h-56.2
			c0,4.3,0.5,8.4,1.4,12.5c0.9,4.4,2.3,8.7,4.2,12.9c6.2,14.1,17.2,27,31.9,37.7c20.7,15.1,48.5,26,80.2,30.7
			c3.5,0.5,6.9,1,10.5,1.3c7.8,0.8,15.7,1.2,23.8,1.2c5.8,0,11.6-0.2,17.2-0.6c3.3-0.2,6.5-0.5,9.7-0.9c24.6-2.8,47.2-9.4,66.2-18.8
			c0.3-0.2,0.6-0.3,1-0.5c1.7-0.9,3.6-1.9,5.7-3c31.9-17.8,52.2-43.9,52.2-73C409.1,168.3,408.8,165.2,408.4,162.2z"/>
		<path class="st2" d="M257.1,270.3c-8,0-16-0.4-24-1.2c-3.6-0.4-7.1-0.8-10.6-1.3c-31.6-4.6-59.6-15.4-81.1-31
			c-15.1-11-26.4-24.4-32.5-38.5c-1.9-4.3-3.3-8.8-4.3-13.3c-0.9-4.3-1.4-8.7-1.4-12.9l0-1.9h242.6c0.5-0.1,1-0.2,1.5-0.2
			c24.6,0,44.9-3.2,60.3-9.5l2.2-0.9l0.4,2.4c0.5,3.2,0.7,6.5,0.7,9.6c0,28.7-19.4,55.9-53.1,74.7c-2.2,1.1-4.1,2.1-5.7,3l-1,0.5
			c-19.5,9.7-42.6,16.2-66.8,19c-3.2,0.4-6.5,0.7-9.8,0.9C268.5,270,262.7,270.3,257.1,270.3z M107,173.9c0.1,3.4,0.6,6.8,1.3,10.3
			c0.9,4.2,2.3,8.5,4,12.6c5.9,13.5,16.7,26.3,31.3,36.9c21,15.3,48.4,25.8,79.4,30.4c3.4,0.5,6.9,1,10.4,1.3
			c13.3,1.3,26.6,1.6,40.7,0.5c3.2-0.2,6.5-0.5,9.6-0.9c23.8-2.7,46.5-9.2,65.6-18.6l0.9-0.5c1.6-0.9,3.6-1.9,5.7-3
			c32.5-18.1,51.1-44.1,51.1-71.4c0-2.2-0.1-4.4-0.4-6.7c-15.5,5.9-35.5,8.9-59.4,8.9c-0.2,0-0.4,0-0.6,0.1l-0.6,0.1H107z"/>
	</g>
	<path class="st2" d="M402.5,170.7h-31.7c-2.9,0.3-5.8,0.5-8.5,0.6c-3.4,0.2-6.7,0.3-9.6,0.4c-4.1,21.3-17.2,40.1-35.9,53.6
		c-1.5,1-2.9,2-4.1,2.8c-0.2,0.1-0.5,0.3-0.7,0.4c-13.6,8.7-29.7,14.9-47.3,17.5c-2.3,0.3-4.6,0.6-7,0.8c-4,0.4-8.2,0.6-12.3,0.6
		c-5.8,0-11.5-0.4-17-1.1c-2.5-0.3-5-0.7-7.5-1.2c-19.8-3.8-38-13.3-54-22.5c0,0,0,0,0,0c0,0,0,0,0,0c-1-0.7-17.5-10.8-29.9-16.9
		c-3.1-1.5-5.9-2.8-8.2-3.6c-6.1-2.1-12.3-3.8-18.3-5.2c0.1,0.2,0.1,0.3,0.2,0.5c6.2,14.1,17.2,27,31.9,37.7
		c20.7,15.1,48.5,26,80.2,30.7c3.5,0.5,6.9,1,10.5,1.3c7.8,0.8,15.7,1.2,23.8,1.2c5.8,0,11.6-0.2,17.2-0.6c3.3-0.2,6.5-0.5,9.7-0.9
		c24.6-2.8,47.2-9.4,66.2-18.8c0.3-0.2,0.6-0.3,1-0.5c1.7-0.9,3.6-1.9,5.7-3c15.8-8.8,28.7-19.6,37.8-31.9
		c8.5-11.5,13.5-24.2,14.3-37.6C408.9,172,405.9,170.7,402.5,170.7z"/>
	<g>
		<path class="st0" d="M269.5,145.6c0-7.8-6.4-14.2-14.2-14.2s-14.2,6.4-14.2,14.2v15.6h28.4V145.6z"/>
		<path class="st1" d="M271.4,163h-32.2v-17.5c0-8.9,7.2-16.1,16.1-16.1s16.1,7.2,16.1,16.1V163z M243,159.3h24.6v-13.7
			c0-6.8-5.5-12.3-12.3-12.3c-6.8,0-12.3,5.5-12.3,12.3V159.3z"/>
	</g>
	<g>
		<path class="st0" d="M469.2,144c-29.8,0-39.7,9.5-60.8,18.1c0,0,0,0,0,0c0.5,3.1,0.7,6.2,0.7,9.3c0,29.2-20.2,55.3-52.2,73
			c13.9-7.1,36.6-17.1,56.6-19.6c23.5-2.9,47.7-1,55.7-1c22,0,39.9-17.9,39.9-39.9S491.3,144,469.2,144z M467.9,211.7
			c-15.7,0-28.4-12.7-28.4-28.4c0-15.7,12.7-28.4,28.4-28.4s28.4,12.7,28.4,28.4C496.3,199,483.6,211.7,467.9,211.7z"/>
		<path class="st1" d="M357.8,246.2l-1.8-3.3c32.5-18.1,51.2-44.1,51.2-71.4c0-2.9-0.2-6-0.7-9l-0.3-1.7l1.6-0.4
			c5.2-2.1,9.6-4.3,13.9-6.3c13.3-6.4,24.7-11.9,47.5-11.9c23,0,41.8,18.7,41.8,41.8s-18.7,41.8-41.8,41.8c-1.7,0-4.2-0.1-7.3-0.2
			c-11.2-0.4-29.9-1.1-48.2,1.2C393,229.3,369.8,240,357.8,246.2z M410.4,163.3c0.3,2.7,0.5,5.5,0.5,8.1c0,22.6-12,44.3-33.6,61.6
			c11-4.4,23.8-8.6,35.9-10.1c18.6-2.3,37.5-1.7,48.8-1.3c3,0.1,5.5,0.2,7.2,0.2c21,0,38-17.1,38-38s-17.1-38-38-38
			c-21.9,0-33,5.3-45.9,11.5C419.3,159.4,415.2,161.4,410.4,163.3z M467.9,213.5c-16.7,0-30.3-13.6-30.3-30.3s13.6-30.3,30.3-30.3
			c16.7,0,30.3,13.6,30.3,30.3S484.6,213.5,467.9,213.5z M467.9,156.7c-14.6,0-26.5,11.9-26.5,26.5c0,14.6,11.9,26.5,26.5,26.5
			c14.6,0,26.5-11.9,26.5-26.5C494.4,168.6,482.5,156.7,467.9,156.7z"/>
	</g>
	<g>
		<path class="st0" d="M356.9,244.5c-2.1,1.1-4,2.1-5.7,3C353.2,246.6,355.1,245.6,356.9,244.5z"/>
		<path class="st1" d="M352.1,249.2l-1.7-3.3c1.7-0.9,3.6-2,5.8-3l1.8,3.3C356,247.2,354,248.2,352.1,249.2z"/>
	</g>
	<path class="st0" d="M234,275.4c0.3,4.2,0.4,8.9,0.4,14.4c0,23.1-10.3,50.7-33.4,64.6c-15.6,9.4-26.2,11.6-31.4,12
		c0,0-1.8,0.1-1.9,0.1c-1.1,0.2-1.9,1.1-1.9,2.2v10.9H342v-10.9c0-1.1-0.8-2-1.9-2.2c-0.1,0-1.9-0.1-1.9-0.1
		c-5.2-0.4-15.8-2.6-31.4-12c-23.1-14-33.4-41.5-33.4-64.6c0-5.5,0.2-10.2,0.4-14.4c-5.9,3.4-12.6,5.3-19.9,5.3
		C246.6,280.7,239.8,278.8,234,275.4z"/>
	<path class="st1" d="M274.3,267.7c-5.7,0.4-11.4,0.6-17.2,0.6c-8.1,0-16-0.4-23.8-1.2c-3.5-0.4-7-0.8-10.5-1.3
		c3.1,3.8,6.9,7,11.2,9.5c5.9,3.4,12.6,5.3,19.9,5.3c7.2,0,14-2,19.9-5.3c3.9-2.3,7.4-5.1,10.3-8.5
		C280.9,267.2,277.6,267.5,274.3,267.7z"/>
	<path class="st1" d="M422.8,176c0-5.2,30.8-25.5,32.4-30.2c1-3-27.5,9.4-25.9,6.7c-6.5,3-12.9,6.3-20.9,9.6c0,0,0,0,0,0
		c-12.1,4.9-25.5,7.4-37.6,8.5h31.7c3.4,0,6.4,1.3,6.4,4.3l0,1.1c-2,27.3-21.8,51.6-52,68.4c13.9-7.1,36.6-17.1,56.6-19.6
		c23.5-2.9,47.7-1,55.7-1c1.8,0,3.6-0.2,5.4-0.4C442.9,224.4,422.8,203.8,422.8,176z"/>
	<path class="st2" d="M255.3,131.4c-4.6,0-8.7,2.3-11.3,5.7c1.4-0.6,2.9-0.9,4.5-0.9c6.6,0,11.9,5.3,11.9,11.9v13.1h9.1v-15.6
		C269.5,137.7,263.2,131.4,255.3,131.4z"/>
	<g>
		<path class="st0" d="M329.2,161.1h-59.7h-28.4h-61.7c-5.9,0-18.2,4.8-18.2,10.6v0.2h79.8h28.4h76.6c0.4-0.1,0.8-0.2,1.2-0.2
			C347.4,165.9,335.1,161.1,329.2,161.1z"/>
		<path class="st2" d="M346.5,173.9H159.4V172c0-7.9,14.1-12.7,20-12.7h149.8c5.9,0,20,4.9,20,12.5v1.9h-1.9c-0.2,0-0.4,0-0.6,0.1
			L346.5,173.9z M163.7,170.1H345c-2.2-3.6-10.8-7.1-15.8-7.1H179.4C174.5,163,165.9,166.5,163.7,170.1z"/>
	</g>
	<path class="st2" d="M329.2,161.1h-43.6c5.9,0,18.2,5,18.2,10.9h42.4c0.4-0.1,0.8-0.2,1.2-0.2C347.4,165.9,335.1,161.1,329.2,161.1
		z"/>
	<path class="st2" d="M343.9,381.5H163.8v-12.8c0-2,1.4-3.7,3.4-4.1c0.2,0,2.3-0.1,2.3-0.1c4.7-0.4,15.1-2.4,30.5-11.7
		c24-14.5,32.5-43,32.5-63c0-4.6-0.1-9-0.4-13.3c-3.9-2.4-7.4-5.4-10.3-8.9c-31.3-4.7-59-15.4-80.3-30.9c-1.2-0.8-2.5-1.8-4-3
		c-26.4-21.9-60.9-30.9-73.6-30.9H16.4c-9.1,0-16.4-7.4-16.4-16.4v-1.9c0-1.1,0.1-2.2,0.3-3.3c0.2-0.9,0.5-1.7,0.8-2.5
		c0.1-0.2,0.1-0.4,0.2-0.5c0.8-1.9,1.9-3.6,3.4-5.1c1.5-1.6,3.2-2.8,5.2-3.6c1-0.4,1.9-0.7,2.8-0.9c0.1,0,0.3-0.1,0.4-0.1
		c1.1-0.2,2.2-0.3,3.4-0.3h67.1c3.7,0,19.4,1.3,22,1.9c1.1,0.1,13.5,0.3,14.8,0.3h39.3c2-6.8,14.3-10.9,19.8-10.9h59.8v-13.7
		c0-0.9,0.1-1.9,0.3-2.9c0.1-0.4,0.2-0.7,0.3-1.1l1.9,0.1l-1.8-0.5c0.1-0.4,0.2-0.8,0.4-1.2c0.2-0.6,0.5-1.1,0.7-1.7l0.3-0.6
		c0.4-0.6,0.7-1.2,1.2-1.8c0.7-0.9,1.5-1.7,2.4-2.5l0.3-0.3c0.8-0.6,1.6-1.2,2.4-1.6l0.7-0.4c0.8-0.4,1.7-0.7,2.6-1
		c0.4-0.1,0.6-0.2,0.8-0.3c1.3-0.3,2.4-0.4,3.6-0.4c8.9,0,16.1,7.2,16.1,16.1v13.7h57.8c5.4,0,17.7,4.1,19.7,10.6c1.2,0,2.4,0,3.7,0
		c2.9-0.1,6.2-0.2,9.5-0.4c2.7-0.2,5.5-0.4,8.4-0.6c4.8-0.5,9.4-1.1,13.7-1.9c1.7-0.3,3-0.6,4.3-0.9l1.1-0.2
		c1.1-0.2,2.2-0.5,3.3-0.8l1.4-0.4c1-0.3,2-0.5,3-0.8l1.5-0.4c1-0.3,2-0.6,3-1l1.4-0.5c1.4-0.5,2.9-1,4.2-1.6
		c1.8-0.7,3.5-1.5,5.1-2.2l1.2-0.5c1.5-0.7,3-1.4,4.4-2l5.1-2.5c13.5-6.5,24.6-11,45.7-11c23,0,41.8,18.7,41.8,41.8
		c0,20.8-15.6,38.6-36.2,41.4c-0.8,0.1-1.5,0.2-2.3,0.3c-1.1,0.1-2.2,0.2-3.3,0.2c-1.7,0-4.2-0.1-7.3-0.2
		c-11.2-0.4-29.9-1.1-48.2,1.2c-20.8,2.6-44,13.3-55.9,19.4c-1.8,1-3.8,2-5.7,3l-1,0.5c-19.3,9.6-42.1,16.1-66.1,18.9
		c-2.8,3.1-5.9,5.7-9.5,7.9c-0.2,4.3-0.4,8.8-0.4,13.3c0,20,8.5,48.6,32.5,63c15.5,9.3,25.8,11.4,30.6,11.7c0,0,2,0.1,2.2,0.1
		c2,0.4,3.4,2.1,3.4,4.1V381.5z M167.6,377.8h172.6v-9c0-0.2-0.2-0.4-0.4-0.4c-0.2,0-1.6-0.1-1.6-0.1c-5.2-0.4-16.2-2.5-32.3-12.3
		c-25.3-15.3-34.3-45.2-34.3-66.3c0-5,0.1-9.8,0.4-14.5l0.1-1l0.9-0.5c3.7-2.1,7-4.9,9.9-8.1l0.5-0.6l0.7-0.1
		c23.8-2.7,46.5-9.2,65.6-18.6l0.9-0.5c1.9-1,3.8-2,5.7-3c12.3-6.3,35.9-17.2,57.3-19.8c18.6-2.3,37.5-1.7,48.8-1.3
		c3,0.1,5.5,0.2,7.2,0.2c1,0,2-0.1,3-0.2c0.7-0.1,1.4-0.1,2.1-0.2c18.8-2.5,32.9-18.7,32.9-37.7c0-21-17.1-38-38-38
		c-20.3,0-31,4.4-44,10.6L420,159c-1.4,0.7-2.9,1.4-4.4,2l-1.3,0.6c-1.7,0.7-3.4,1.5-5.2,2.2c-1.5,0.6-2.9,1.2-4.4,1.7l-1.4,0.5
		c-1,0.3-2.1,0.7-3.1,1l-1.2,0.4c-1.4,0.4-2.4,0.7-3.4,0.9l-1.5,0.4c-1.1,0.3-2.3,0.5-3.4,0.8l-1.1,0.2c-1.4,0.3-2.8,0.6-4.1,0.8
		c-4.8,0.9-9.5,1.5-14.4,2c-3,0.3-5.8,0.5-8.6,0.7c-3.4,0.2-6.7,0.3-9.7,0.4c-1.9,0-3.7,0-5.4,0h-1.9v-1.9c0-4.1-10.6-8.8-16.3-8.8
		h-61.6v-17.5c0-6.8-5.5-12.3-12.3-12.3c-0.9,0-1.8,0.1-2.7,0.3l-0.6,0.2c-0.7,0.2-1.3,0.4-2,0.7l-0.3,0.2c-0.8,0.5-1.5,0.9-2,1.3
		c-0.9,0.8-1.6,1.4-2.1,2.1l0,0c-0.3,0.4-0.6,0.9-0.9,1.4l-0.3,0.5c-0.2,0.4-0.4,0.8-0.6,1.3c-0.1,0.3-0.2,0.6-0.3,0.9l-0.1,0.4
		c-0.1,0.2-0.1,0.5-0.2,0.7c-0.1,0.7-0.2,1.5-0.2,2.2V163h-63.6c-5.7,0-16.3,4.6-16.3,8.8v1.9l-1.9,0.2h-40.9
		c-0.1,0-14.5-0.1-15.7-0.4c-2.1-0.5-17.4-1.8-21.1-1.8H16.4c-0.9,0-1.7,0.1-2.6,0.3c-0.1,0-0.2,0.1-0.3,0.1
		c-0.7,0.2-1.4,0.4-2.1,0.7c-1.6,0.7-2.9,1.6-4.1,2.8c-1.1,1.2-2,2.5-2.6,4c0,0.2-0.1,0.3-0.1,0.4c-0.2,0.6-0.5,1.2-0.6,1.9
		c-0.2,0.8-0.3,1.7-0.3,2.5v1.9c0,7,5.7,12.7,12.7,12.7H64c13.1,0,48.8,9.3,76,31.8c1.3,1.1,2.6,2,3.7,2.8
		c21,15.3,48.5,25.8,79.4,30.4l0.7,0.1l0.5,0.6c2.9,3.6,6.5,6.7,10.6,9.1l0.9,0.5l0.1,1c0.3,4.6,0.4,9.5,0.4,14.5
		c0,21-9,51-34.3,66.3c-16.1,9.7-27.1,11.9-32.3,12.3c-0.1,0-1.6,0.1-1.9,0.1c0,0-0.2,0.1-0.2,0.4V377.8z M467.9,213.5
		c-16.7,0-30.3-13.6-30.3-30.3s13.6-30.3,30.3-30.3c16.7,0,30.3,13.6,30.3,30.3S484.6,213.5,467.9,213.5z M467.9,156.7
		c-14.6,0-26.5,11.9-26.5,26.5c0,14.6,11.9,26.5,26.5,26.5c14.6,0,26.5-11.9,26.5-26.5C494.4,168.6,482.5,156.7,467.9,156.7z"/>
	<path class="st3" d="M398.1,170.7"/>
	<path class="st3" d="M328,172"/>
	<g>
		<path class="st2" d="M340.1,366.5c-0.1,0-1.9-0.1-1.9-0.1c-5.2-0.4-15.8-2.6-31.4-12c-23.1-14-33.4-41.5-33.4-64.6
			c0-5.5,0.2-10.2,0.4-14.4c-5.9,3.4-12.6,5.3-19.9,5.3c-1.6,0-3.1-0.1-4.6-0.3c-0.1,2.9-0.2,6-0.2,9.4c0,23.1,13.1,59.2,15.9,67.9
			c2.9,8.7,1.5,22-11.5,22H342v-10.9C342,367.6,341.2,366.7,340.1,366.5z"/>
		<path class="st2" d="M343.9,381.5h-90.4v-3.8c3.9,0,6.7-1.3,8.6-3.8c3-4.1,2.8-10.8,1.2-15.7c-0.3-0.9-0.7-2-1.2-3.5
			c-4.4-13.2-14.9-43.9-14.9-65c0-3.4,0.1-6.5,0.2-9.4l0.1-2l2,0.2c1.8,0.2,3.1,0.3,4.4,0.3c6.6,0,13.2-1.8,18.9-5.1l3-1.7l-0.2,3.5
			c-0.3,4.6-0.4,9.4-0.4,14.3c0,20,8.5,48.6,32.5,63c15.5,9.3,25.8,11.4,30.6,11.7c0,0,2,0.1,2.2,0.1h0c2,0.4,3.4,2.1,3.4,4.1V381.5
			z M263.7,377.8h76.5v-9c0-0.2-0.2-0.3-0.3-0.4c-0.4,0-1.7-0.1-1.7-0.1c-5.2-0.4-16.2-2.5-32.3-12.3
			c-25.3-15.3-34.3-45.2-34.3-66.3c0-3.8,0.1-7.6,0.2-11.2c-5.6,2.6-11.7,4-17.8,4c-0.9,0-1.8,0-2.8-0.1c-0.1,2.3-0.1,4.7-0.1,7.3
			c0,20.5,10.7,52,14.7,63.8c0.5,1.4,0.9,2.6,1.2,3.5c1.7,5.3,2.3,13.5-1.7,19C264.6,376.7,264.2,377.3,263.7,377.8z"/>
	</g>
	<g>
		<path class="st4" d="M497.3,155.8c-15.7-15.7-41.4-15.7-57.1,0l-28.5,28.5l28.5,28.5c15.7,15.7,41.4,15.7,57.1,0
			C513,197.1,513,171.5,497.3,155.8 M478.3,193.8L478.3,193.8c-5.2,5.2-13.8,5.2-19,0l-9.5-9.5l9.5-9.5c5.2-5.2,13.8-5.2,19,0
			C483.6,180,483.6,188.6,478.3,193.8"/>
		<path class="st1" d="M468.8,226.4c-10.8,0-21.6-4.1-29.8-12.3l-29.8-29.8l29.8-29.8c16.5-16.4,43.2-16.4,59.7,0l0,0
			c7.9,7.9,12.3,18.5,12.3,29.8c0,11.3-4.4,21.9-12.3,29.8C490.4,222.3,479.6,226.4,468.8,226.4z M414.3,184.3l27.2,27.2
			c15,15,39.5,15,54.5,0c7.2-7.2,11.2-16.9,11.2-27.2c0-10.3-4-20-11.2-27.2l0,0c-15-15-39.5-15-54.5,0L414.3,184.3z M468.8,199.6
			c-3.9,0-7.8-1.5-10.8-4.5l-10.8-10.8l10.8-10.8c6-6,15.7-6,21.6,0c2.9,2.9,4.5,6.7,4.5,10.8c0,4.1-1.6,7.9-4.5,10.8l0,0
			C476.6,198.1,472.7,199.6,468.8,199.6z M452.4,184.3l8.2,8.2c4.5,4.5,11.9,4.5,16.4,0l0,0c2.2-2.2,3.4-5.1,3.4-8.2
			c0-3.1-1.2-6-3.4-8.2c-4.5-4.5-11.9-4.5-16.4,0L452.4,184.3z"/>
	</g>
</g>
</svg>
